<svg xmlns="http://www.w3.org/2000/svg" xmlns:xlink="http://www.w3.org/1999/xlink" width="500" zoomAndPan="magnify" viewBox="0 0 375 374.999991" height="500" preserveAspectRatio="xMidYMid meet" version="1.0"><defs><clipPath id="291498f9c3"><path d="M 0.960938 1 L 350.160156 1 L 350.160156 175.0625 L 0.960938 175.0625 Z M 0.960938 1 " clip-rule="nonzero"/></clipPath><clipPath id="cd2e41a764"><path d="M 0.960938 175.9375 L 350.160156 175.9375 L 350.160156 350 L 0.960938 350 Z M 0.960938 175.9375 " clip-rule="nonzero"/></clipPath><clipPath id="a48660151d"><rect x="0" width="351" y="0" height="351"/></clipPath></defs><rect x="-37.5" width="450" fill="#ffffff" y="-37.499999" height="449.999989" fill-opacity="1"/><rect x="-37.5" width="450" fill="#ffffff" y="-37.499999" height="449.999989" fill-opacity="1"/><g transform="matrix(1, 0, 0, 1, 12, 12)"><g clip-path="url(#a48660151d)"><g clip-path="url(#291498f9c3)"><path fill="#fdee3f" d="M 349.835938 169.441406 C 349.683594 165.253906 349.386719 161.078125 348.933594 156.914062 C 348.484375 152.75 347.882812 148.605469 347.136719 144.484375 C 346.386719 140.363281 345.488281 136.273438 344.445312 132.21875 C 343.402344 128.160156 342.214844 124.144531 340.882812 120.175781 C 339.550781 116.203125 338.078125 112.285156 336.460938 108.417969 C 334.847656 104.554688 333.097656 100.75 331.207031 97.011719 C 329.320312 93.273438 327.300781 89.605469 325.148438 86.011719 C 322.996094 82.417969 320.714844 78.90625 318.3125 75.476562 C 315.90625 72.046875 313.378906 68.707031 310.734375 65.460938 C 308.089844 62.210938 305.332031 59.0625 302.457031 56.015625 C 299.585938 52.964844 296.609375 50.023438 293.523438 47.1875 C 290.441406 44.355469 287.257812 41.632812 283.976562 39.027344 C 280.699219 36.421875 277.328125 33.9375 273.871094 31.574219 C 270.410156 29.210938 266.871094 26.976562 263.25 24.867188 C 259.632812 22.757812 255.941406 20.785156 252.179688 18.941406 C 248.417969 17.097656 244.59375 15.394531 240.707031 13.828125 C 236.824219 12.261719 232.886719 10.835938 228.898438 9.550781 C 224.910156 8.265625 220.882812 7.128906 216.8125 6.136719 C 212.746094 5.140625 208.644531 4.296875 204.515625 3.597656 C 200.382812 2.898438 196.234375 2.347656 192.0625 1.949219 C 187.894531 1.550781 183.714844 1.300781 179.527344 1.203125 C 175.339844 1.101562 171.152344 1.15625 166.96875 1.359375 C 162.785156 1.558594 158.613281 1.914062 154.453125 2.417969 C 150.296875 2.917969 146.160156 3.570312 142.050781 4.371094 C 137.9375 5.171875 133.859375 6.121094 129.816406 7.214844 C 125.773438 8.308594 121.773438 9.546875 117.820312 10.929688 C 113.863281 12.3125 109.964844 13.835938 106.121094 15.496094 C 102.277344 17.160156 98.496094 18.960938 94.78125 20.894531 C 91.066406 22.832031 87.425781 24.898438 83.859375 27.09375 C 80.292969 29.292969 76.808594 31.613281 73.410156 34.0625 C 70.011719 36.511719 66.703125 39.078125 63.488281 41.765625 C 60.273438 44.449219 57.160156 47.25 54.148438 50.160156 C 50.128906 54.03125 46.308594 58.085938 42.679688 62.328125 C 39.054688 66.570312 35.640625 70.976562 32.441406 75.546875 C 29.238281 80.117188 26.265625 84.828125 23.519531 89.6875 C 20.773438 94.546875 18.269531 99.523438 16.003906 104.625 C 13.738281 109.722656 11.722656 114.921875 9.960938 120.214844 C 8.195312 125.507812 6.691406 130.875 5.445312 136.3125 C 4.203125 141.753906 3.222656 147.242188 2.507812 152.773438 C 1.789062 158.308594 1.34375 163.863281 1.164062 169.441406 L 0.964844 175.5 L 350.035156 175.5 Z M 349.835938 169.441406 " fill-opacity="1" fill-rule="nonzero"/></g><g clip-path="url(#cd2e41a764)"><path fill="#eb4427" d="M 1.164062 181.558594 C 1.316406 185.746094 1.613281 189.921875 2.066406 194.085938 C 2.515625 198.25 3.117188 202.394531 3.863281 206.515625 C 4.613281 210.636719 5.511719 214.726562 6.554688 218.78125 C 7.597656 222.839844 8.785156 226.855469 10.117188 230.824219 C 11.449219 234.796875 12.921875 238.714844 14.539062 242.582031 C 16.152344 246.445312 17.902344 250.25 19.792969 253.988281 C 21.679688 257.726562 23.699219 261.394531 25.851562 264.988281 C 28.003906 268.582031 30.285156 272.09375 32.6875 275.523438 C 35.09375 278.953125 37.621094 282.292969 40.265625 285.539062 C 42.910156 288.789062 45.667969 291.9375 48.542969 294.984375 C 51.414062 298.035156 54.390625 300.976562 57.476562 303.8125 C 60.558594 306.644531 63.742188 309.367188 67.023438 311.972656 C 70.300781 314.578125 73.671875 317.0625 77.128906 319.425781 C 80.589844 321.789062 84.128906 324.023438 87.75 326.132812 C 91.367188 328.242188 95.058594 330.214844 98.820312 332.058594 C 102.582031 333.902344 106.40625 335.605469 110.292969 337.171875 C 114.175781 338.738281 118.113281 340.164062 122.101562 341.449219 C 126.089844 342.734375 130.117188 343.871094 134.1875 344.863281 C 138.253906 345.859375 142.355469 346.703125 146.484375 347.402344 C 150.617188 348.101562 154.765625 348.652344 158.9375 349.050781 C 163.105469 349.449219 167.285156 349.699219 171.472656 349.796875 C 175.660156 349.898438 179.847656 349.84375 184.03125 349.640625 C 188.214844 349.441406 192.386719 349.085938 196.546875 348.582031 C 200.703125 348.082031 204.839844 347.429688 208.949219 346.628906 C 213.0625 345.828125 217.140625 344.878906 221.183594 343.785156 C 225.226562 342.691406 229.226562 341.453125 233.179688 340.070312 C 237.136719 338.6875 241.035156 337.164062 244.878906 335.503906 C 248.722656 333.839844 252.503906 332.039062 256.21875 330.105469 C 259.933594 328.167969 263.574219 326.101562 267.140625 323.90625 C 270.707031 321.707031 274.191406 319.386719 277.589844 316.9375 C 280.988281 314.488281 284.296875 311.921875 287.511719 309.234375 C 290.726562 306.550781 293.839844 303.75 296.851562 300.839844 C 300.871094 296.96875 304.691406 292.914062 308.320312 288.671875 C 311.945312 284.429688 315.359375 280.023438 318.558594 275.453125 C 321.761719 270.882812 324.734375 266.171875 327.480469 261.3125 C 330.226562 256.453125 332.730469 251.476562 334.996094 246.375 C 337.261719 241.277344 339.277344 236.078125 341.039062 230.785156 C 342.804688 225.492188 344.308594 220.125 345.554688 214.6875 C 346.796875 209.246094 347.777344 203.757812 348.492188 198.226562 C 349.210938 192.691406 349.65625 187.136719 349.835938 181.558594 L 350.035156 175.5 L 0.964844 175.5 Z M 1.164062 181.558594 " fill-opacity="1" fill-rule="nonzero"/></g></g></g></svg>